#!OML:ASF E:/inclinewalkrobotboard/Project1/Captureday1/Session1/subject1.ASF
:FULLY-SPECIFIED
:DEGREES
226
root 0 0 0 -1.654100995630491 0.006338387646366073 1.2755806540190062
lowerback 9.368793299640231 -1.2863610739152826 -2.6701541522321746
upperback 0.7920461962427116 -2.0505174011358784 1.2315043225381597
thorax -4.329601097769943 -0.9400433407087019 3.082215103234021
lowerneck -16.514639883832764 -2.0864691570923193 -2.2767739732334644
upperneck 14.645277880883608 -2.279871469643864 0.28395006789460764
head 7.0691926644642304 -1.2561457290304785 0.2074117128411557
rclavicle 2.9094665499943933E-15 -8.433386526872781E-16
rhumerus -33.170887979094616 -28.951817025554508 -82.02328394530242
rradius 16.671183822406704
rwrist 17.185966909879664
rhand -20.0725423099184 26.31654180771706
rfingers 7.125019999999986
rthumb 6.301126933746822 -3.809939664214582
lclavicle 2.8411791937715632E-15 -1.0976341485421769E-15
lhumerus -31.764865695178578 -3.375230893133192 79.5688381553015
lradius 35.13837335783181
lwrist 12.435780433889827
lhand -29.293231472918354 27.29869920122628
lfingers 7.125020000000003
lthumb -2.700131099711461 57.41936309631778
rfemur -22.41222560685716 4.10132505372858 22.97509905656915
rtibia 39.382225448295785
rfoot -6.996480972831931 -8.643102383763464
rtoes 2.0273008185244614
lfemur 8.123194450674454 -6.620052550027596 -24.698010444323835
ltibia 25.350128229404397
lfoot -16.062796200438967 0.4456706336061842
ltoes -5.938067716628588
227
root 0 0 0 -1.6598863346709078 -0.08849435907262126 1.0268503737965982
lowerback 9.113378794294242 -1.327063214166234 -2.415292105133288
upperback 0.4739477820927749 -2.056004100641143 1.3430603495787554
thorax -4.532376345455118 -0.9503957815065436 3.0522458459709663
lowerneck -17.201557506456542 -2.019975345167099 -2.1805529753703436
upperneck 15.200553549515 -2.160130009780567 -0.12943950806994464
head 7.378793583536505 -1.2128503089897906 0.05253656063839274
rclavicle 2.5818572109324165E-15 -5.153398216761543E-16
rhumerus -32.85558946296758 -29.625513546493785 -81.45850287370914
rradius 16.980588405429835
rwrist 17.042696385146883
rhand -20.15364354764569 26.12324275453073
rfingers 7.125019999999986
rthumb 6.2231683120239385 -4.0040530558951914
lclavicle 2.0694408468857785E-15 -1.1313596677706716E-15
lhumerus -31.71091725673638 -3.8702359290176878 79.77987653372915
lradius 35.845648523311866
lwrist 12.899933451467803
lhand -29.262000102518137 27.216177833796806
lfingers 7.125020000000004
lthumb -2.658755288164084 57.322069456279564
rfemur -21.74977201073181 4.294797581365822 23.38326053258663
rtibia 38.682237349221836
rfoot -7.514152687223922 -8.62987702344302
rtoes 1.923185673283413
lfemur 7.9173134472596844 -6.482113791028312 -24.57192410078156
ltibia 25.795792918806356
lfoot -15.77200902735633 0.23874573050733172
ltoes -6.0300895651335615
228
root 0 0 0 -1.6437058441692545 -0.17298554514666442 0.7156473541814097
lowerback 8.950732368777555 -1.3682157697244959 -2.1357808734127604
upperback 0.23783690227282334 -2.0583408728278663 1.4564801282767117
thorax -4.6992668391298205 -0.9606982207885499 3.0075064031959804
lowerneck -17.695927184436794 -1.9517632695099867 -2.036702159932004
upperneck 15.655457847368314 -2.0436909812037634 -0.530078766774891
head 7.623007306760222 -1.1697907181072962 -0.10249261970055962
rclavicle 2.270374404830448E-15 -2.1281664931338117E-16
rhumerus -32.95234598102694 -30.049667863280018 -81.28866193896772
rradius 16.81985330493758
rwrist 16.818404468038736
rhand -20.157472635923572 25.955271169070336
rfingers 7.125019999999986
rthumb 6.2198542583156415 -4.169576704520878
lclavicle 1.6452402403244863E-15 -1.0334879505670827E-15
lhumerus -31.662357699610133 -4.009584661600937 79.99183242165687
lradius 35.918867783580716
lwrist 12.911202186256359
lhand -29.196955555411364 27.14365732366986
lfingers 7.125020000000005
lthumb -2.58937093046387 57.237270771170884
rfemur -21.076956404541857 4.419920332033836 23.680468843418563
rtibia 38.23503758575755
rfoot -7.824539400988833 -8.546014928225368
rtoes 1.9299371214143728
lfemur 7.4865845219442155 -6.301785132876025 -24.391700198974874
ltibia 26.373382770229597
lfoot -15.319699771150848 -0.03584800585708159
ltoes -6.013558152510381
229
root 0 0 0 -1.604804669084169 -0.21017987825365614 0.42679492664121144
lowerback 9.033947582492297 -1.4003951532465742 -1.9098169365148785
upperback 0.14644753875192157 -2.0574306450699558 1.5432498800317684
thorax -4.848064892373095 -0.9691332817164005 2.9610260731723645
lowerneck -17.92221326218708 -1.9041008975552969 -1.8679723327141358
upperneck 15.914519065628435 -1.963675824720548 -0.8602969310005395
head 7.760606374589433 -1.1412495618127902 -0.23664367704009753
rclavicle 2.053082898678228E-15 1.2033916506410368E-17
rhumerus -33.18247120182447 -30.286659109136313 -81.3039104262779
rradius 16.522405318415395
rwrist 16.61779554130616
rhand -20.12790317552944 25.826126387222956
rfingers 7.125019999999986
rthumb 6.248756487886573 -4.2954284032191765
lclavicle 1.4886437124253743E-15 -8.988402536324814E-16
lhumerus -31.58518883107939 -3.971076969065943 80.2327412520833
lradius 35.64512553372471
lwrist 12.67032825249807
lhand -29.110584198548395 27.055897208010176
lfingers 7.125020000000006
lthumb -2.5019260689876095 57.1370623174447
rfemur -20.399966225334303 4.504713458982367 23.9361984358005
rtibia 38.01509659641722
rfoot -8.001132466790109 -8.418070335873418
rtoes 2.0354454211346105
lfemur 6.777658271845609 -6.0172046603506075 -24.133151109897373
ltibia 27.197027695206646
lfoot -14.63557606311734 -0.43991829309929686
ltoes -5.937170852658603
230
root 0 0 0 -1.6099900713332653 -0.25735060015682043 0.22114125335514156
lowerback 9.282877084831876 -1.4138068106506485 -1.7658707077194415
upperback 0.13549111964862307 -2.0449720339839867 1.601972751569772
thorax -5.001539865967446 -0.9693397516193878 2.930295897022965
lowerneck -17.978957789141106 -1.8800091689196428 -1.7119143935786276
upperneck 15.99141577623576 -1.9205351100333452 -1.0976989379407331
head 7.812389902816894 -1.127958276744427 -0.3382317011792301
rclavicle 1.8635982934629243E-15 1.0327021411211487E-16
rhumerus -33.30132296344988 -30.35030804206755 -81.3434190259407
rradius 16.40084999666209
rwrist 16.569857910518074
rhand -20.1088954074932 25.762984047109335
rfingers 7.125019999999986
rthumb 6.267456933365537 -4.3564438798773395
lclavicle 1.4628727876399624E-15 -8.065485477215461E-16
lhumerus -31.44478029669624 -3.8642727316425693 80.52769262742505
lradius 35.18740868018039
lwrist 12.293283965101315
lhand -29.012519571491573 26.940457678060277
lfingers 7.125020000000008
lthumb -2.4039402268298424 57.00759183581867
rfemur -19.730858852129295 4.570874768598815 24.20571123259917
rtibia 38.0067109320791
rfoot -8.100456649796442 -8.268321296900329
rtoes 2.2260747507802416
lfemur 5.701010192041644 -5.56171744665526 -23.770945107351267
ltibia 28.363935559433664
lfoot -13.64841891507675 -1.0271404162829367
ltoes -5.841997140291163
231
root 0 0 0 -1.7127455247166137 -0.3711362088692649 0.09516762383833965
lowerback 9.618195939195301 -1.4053518905555218 -1.6890424581363803
upperback 0.13588878752875086 -2.013355609828495 1.6467765670699444
thorax -5.189004179833909 -0.9571092097836706 2.9230536186728373
lowerneck -17.967650906680845 -1.8753491812095096 -1.5723211118013083
upperneck 15.931675527198488 -1.9044881926296462 -1.2661985941727119
head 7.811604074505054 -1.1266007372409768 -0.4155515676916665
rclavicle 1.6410792629471086E-15 2.1893293966758117E-17
rhumerus -33.26813222926302 -30.295410676764828 -81.35579753723431
rradius 16.44986574004126
rwrist 16.657755334219395
rhand -20.097691780348256 25.765352162729698
rfingers 7.125019999999986
rthumb 6.278521834193615 -4.35205385442292
lclavicle 1.4457847288011574E-15 -8.199293639695884E-16
lhumerus -31.247452300984765 -3.7503569932924945 80.86841063564093
lradius 34.666863730093255
lwrist 11.867041526587816
lhand -28.91007685993436 26.795518407632724
lfingers 7.12502000000001
lthumb -2.3017419414878795 56.848018932125115
rfemur -19.080173873408015 4.633471719573441 24.544961106377027
rtibia 38.25223595999597
rfoot -8.15169483226249 -8.109858542303344
rtoes 2.5116154767483345
lfemur 4.088799340785372 -4.840069293083087 -23.270783420484616
ltibia 29.99367029524887
lfoot -12.245859504561846 -1.8694448316783325
ltoes -5.745574422363088
232
root 0 0 0 -1.9407851730933925 -0.586034096585841 4.097231488411346E-4
lowerback 10.09634251878843 -1.3743292415037773 -1.647075263033839
upperback 0.12592862698635474 -1.9538949666222736 1.694369902357719
thorax -5.46572415589174 -0.9294321783506037 2.936008204946852
lowerneck -17.92045044207543 -1.888000122967928 -1.4089883579638074
upperneck 15.753633484377392 -1.9100477646797247 -1.4248372082338536
head 7.775508987687982 -1.1362103616732946 -0.49491393358153707
rclavicle 1.4061880379516182E-15 -2.497636853273533E-16
rhumerus -33.12610382250407 -30.16227646473728 -81.3387730407684
rradius 16.54346122871099
rwrist 16.78054764048592
rhand -20.066941405500373 25.828853091564177
rfingers 7.125019999999985
rthumb 6.308143730559632 -4.284045115640367
lclavicle 1.4090777242567373E-15 -9.789796364747625E-16
lhumerus -31.031323380819067 -3.6562658757914783 81.22844442426106
lradius 34.175372459515536
lwrist 11.45249078032212
lhand -28.80342597431447 26.615793688190866
lfingers 7.125020000000012
lthumb -2.195242697264078 56.6542713720045
rfemur -18.39515887570967 4.7146694266680065 25.026145794653626
rtibia 38.758011605870934
rfoot -8.20284681646078 -7.943971340245236
rtoes 2.9045810819972715
lfemur 1.4797392276529662 -3.656589436077186 -22.54147749565802
ltibia 32.36044924900382
lfoot -10.123164329912473 -3.133435433189247
ltoes -5.584670904102829
233
root 0 0 0 -2.327575060182196 -0.9466024463248357 -0.11377964581526445
lowerback 10.811223186406405 -1.3143116527955887 -1.6070225416555786
upperback 0.10100613589509999 -1.850328548558889 1.7594681923081286
thorax -5.889542227420613 -0.8795443874954809 2.9621110507688373
lowerneck -17.833588238271894 -1.9191991666335977 -1.176017247127073
upperneck 15.465531336120188 -1.9375009060765374 -1.624684435853413
head 7.712815512011562 -1.158013621541667 -0.6010665114469411
rclavicle 1.1860305875382092E-15 -7.607184707051116E-16
rhumerus -32.83148315443571 -29.941033927913153 -81.25285376835107
rradius 16.667940440419216
rwrist 16.876903659380535
rhand -19.99451643816634 25.976994856738536
rfingers 7.125019999999985
rthumb 6.377303957023472 -4.126649251699391
lclavicle 1.3673386741551707E-15 -1.334051831899703E-15
lhumerus -30.850797851041264 -3.576991634271659 81.57700845729804
lradius 33.7653156415888
lwrist 11.075688388738117
lhand -28.683938325343973 26.384675857376326
lfingers 7.125020000000013
lthumb -2.076257991727031 56.40976850246196
rfemur -17.480900766369146 4.8458030517794715 25.743873610553635
rtibia 39.4694621093351
rfoot -8.320668763630472 -7.738297829214961
rtoes 3.434405476069079
lfemur -3.2139690906701874 -1.6237541509756934 -21.354323283684003
ltibia 36.037636526782705
lfoot -6.604042855373639 -5.153142099498833
ltoes -5.144959707871518
